# xmcd
#
# Track frame offsets: 
#        150
#        13297
#        25467
#        40957
#        52862
#        74352
#        90560
#        107635
#        171115
#
# Disc length: 2470 seconds
#
# Revision: 0
# Processed by: cddbd v1.5.2PL0 Copyright (c) Steve Scherf et al.
# Submitted via: ExactAudioCopy v0.95b4
#
DISCID=7109a409
DTITLE=Anno Domini - У фокусі часу
DYEAR=2004
DGENRE=Blues
TTITLE0=У фокусі часу
TTITLE1=Вершник
TTITLE2=На початку XXI ст.
TTITLE3=На відлунні
TTITLE4=Крок
TTITLE5=Івана Купала
TTITLE6=Пройде день
TTITLE7=Три хвилі часу
TTITLE8=На відлунні (live)
EXTD=
EXTT0=
EXTT1=
EXTT2=
EXTT3=
EXTT4=
EXTT5=
EXTT6=
EXTT7=
EXTT8=
PLAYORDER=
